<!DOCTYPE svg PUBLIC "-//W3C//DTD SVG 20010904//EN" "http://www.w3.org/TR/2001/REC-SVG-20010904/DTD/svg10.dtd">
<svg version="1.0" xmlns="http://www.w3.org/2000/svg" width="342px" height="343px" viewBox="0 0 3420 3430" preserveAspectRatio="xMidYMid meet">
<g id="layer101" fill="#4786df" stroke="none">
 <path d="M0 1715 l0 -1715 1710 0 1710 0 0 1715 0 1715 -1710 0 -1710 0 0 -1715z"/>
 </g>
<g id="layer102" fill="#fefeff" stroke="none">
 <path d="M1552 3033 c-27 -11 -40 -65 -57 -233 -10 -96 -19 -176 -20 -178 -1 -1 -22 9 -47 23 -215 120 -504 124 -733 10 -232 -115 -396 -340 -436 -598 -54 -341 142 -701 461 -846 52 -23 62 -33 89 -84 76 -144 214 -272 386 -357 206 -102 351 -134 600 -134 200 0 291 13 448 66 174 58 353 168 444 272 28 32 52 48 93 61 202 65 370 215 436 390 50 134 42 300 -21 424 -103 204 -303 334 -577 376 -32 5 -40 13 -68 62 -96 170 -294 282 -480 271 l-55 -3 -176 233 c-96 129 -182 238 -190 243 -15 9 -75 11 -97 2z"/>
 </g>

</svg>