<svg id="svg" version="1.1" xmlns="http://www.w3.org/2000/svg" xmlns:xlink="http://www.w3.org/1999/xlink" width="400" height="400" viewBox="0, 0, 400,400"><g id="svgg"><path id="path0" d="M197.000 119.457 C 187.838 120.501,186.304 120.757,180.200 122.262 C 160.126 127.213,143.538 139.276,136.695 153.900 C 135.566 156.312,135.319 156.567,133.239 157.474 C 114.147 165.799,103.523 179.928,100.026 201.646 C 98.809 209.203,100.649 220.499,104.436 228.728 C 105.076 230.118,105.600 231.322,105.600 231.404 C 105.600 234.401,121.490 252.000,124.196 252.000 C 124.350 252.000,124.970 252.352,125.574 252.782 C 138.873 262.251,160.649 263.048,177.503 254.682 C 179.969 253.458,181.737 252.796,181.936 253.023 C 182.269 253.404,182.737 257.280,184.366 273.167 C 184.971 279.066,186.358 280.800,190.473 280.800 C 193.464 280.800,193.440 280.824,202.080 269.285 C 206.315 263.628,209.888 258.910,210.020 258.800 C 210.152 258.690,211.500 256.890,213.015 254.800 C 214.531 252.710,215.876 250.910,216.005 250.800 C 216.133 250.690,216.633 250.035,217.114 249.345 L 217.990 248.090 223.495 248.079 C 230.032 248.065,232.657 247.509,238.343 244.939 C 244.944 241.954,251.084 236.057,254.184 229.724 C 255.025 228.006,255.779 226.524,255.860 226.430 C 255.941 226.337,258.030 225.952,260.503 225.576 C 274.912 223.384,285.043 217.683,293.600 206.952 C 301.770 196.706,303.132 180.762,296.876 168.600 C 291.571 158.287,281.718 150.365,269.265 146.398 C 265.561 145.218,265.308 145.062,263.200 142.663 C 252.492 130.475,234.543 122.208,213.600 119.817 C 208.788 119.268,200.277 119.083,197.000 119.457 " stroke="none" fill="#fbfbfb" fill-rule="evenodd"></path><path id="path1" d="M0.000 200.000 L 0.000 400.000 200.000 400.000 L 400.000 400.000 400.000 200.000 L 400.000 0.000 200.000 0.000 L 0.000 0.000 0.000 200.000 M215.833 119.210 C 225.883 120.949,227.443 121.295,232.400 122.883 C 245.029 126.929,255.892 133.529,263.484 141.769 C 265.879 144.369,266.121 144.519,270.305 145.967 C 279.677 149.212,288.751 155.365,293.482 161.683 C 305.717 178.026,304.029 198.862,289.341 212.801 C 287.833 214.232,286.087 215.762,285.460 216.201 C 284.833 216.641,283.683 217.495,282.904 218.101 C 277.920 221.975,263.815 226.800,257.471 226.800 C 256.718 226.800,256.266 227.350,255.087 229.700 C 249.073 241.682,237.427 248.762,223.625 248.825 L 218.200 248.849 216.200 251.644 C 215.100 253.182,212.670 256.456,210.800 258.920 C 208.930 261.384,206.144 265.110,204.608 267.200 C 203.073 269.290,201.722 271.090,201.606 271.200 C 201.490 271.310,200.595 272.480,199.617 273.800 C 198.638 275.120,197.622 276.420,197.358 276.689 C 197.094 276.959,196.492 277.804,196.019 278.569 C 193.814 282.137,188.928 282.878,185.929 280.099 C 184.424 278.704,184.147 277.741,183.419 271.400 C 183.066 268.320,182.493 263.370,182.146 260.400 C 181.799 257.430,181.495 254.683,181.472 254.295 C 181.448 253.908,181.332 253.639,181.214 253.697 C 181.096 253.756,179.200 254.663,177.000 255.712 C 174.800 256.761,172.730 257.762,172.400 257.936 C 171.483 258.419,164.504 260.279,161.776 260.767 C 155.834 261.829,145.642 261.203,139.000 259.367 C 137.680 259.002,136.192 258.614,135.694 258.504 C 135.196 258.394,134.690 258.146,134.570 257.952 C 134.451 257.759,134.098 257.600,133.787 257.600 C 132.266 257.600,125.607 253.936,120.914 250.517 C 113.927 245.427,106.439 236.022,103.625 228.800 C 103.325 228.030,102.849 226.860,102.566 226.200 C 100.346 221.022,99.217 214.536,99.207 206.920 C 99.200 201.228,99.400 199.288,100.455 194.800 C 102.175 187.478,105.889 179.743,110.664 173.538 C 114.492 168.564,124.409 160.535,129.400 158.369 C 135.018 155.931,134.574 156.303,136.579 152.356 C 141.355 142.957,150.557 134.215,161.800 128.397 C 165.362 126.554,172.279 123.600,173.034 123.600 C 173.351 123.600,173.923 123.422,174.305 123.205 C 175.876 122.310,184.053 120.437,191.600 119.243 C 194.738 118.747,213.013 118.721,215.833 119.210 " stroke="none" fill="#4484dc" fill-rule="evenodd"></path><path id="path2" d="M192.400 119.209 C 191.594 119.383,192.444 119.423,194.400 119.301 C 196.270 119.185,197.875 119.025,197.967 118.945 C 198.264 118.687,193.842 118.896,192.400 119.209 M210.033 118.951 C 210.125 119.035,211.640 119.203,213.400 119.326 C 215.362 119.463,216.136 119.422,215.400 119.222 C 214.195 118.893,209.721 118.668,210.033 118.951 M186.800 120.000 L 185.800 120.320 186.800 120.313 C 187.350 120.309,188.340 120.168,189.000 120.000 L 190.200 119.695 189.000 119.687 C 188.340 119.683,187.350 119.824,186.800 120.000 M218.600 120.000 C 219.260 120.168,220.250 120.309,220.800 120.313 L 221.800 120.320 220.800 120.000 C 220.250 119.824,219.260 119.683,218.600 119.687 L 217.400 119.695 218.600 120.000 M181.000 121.219 C 180.442 121.471,180.685 121.507,181.800 121.338 C 182.680 121.204,183.475 121.028,183.567 120.947 C 183.910 120.644,181.768 120.871,181.000 121.219 M224.800 121.200 C 225.350 121.376,226.160 121.526,226.600 121.532 L 227.400 121.544 226.600 121.200 C 226.160 121.011,225.350 120.862,224.800 120.868 L 223.800 120.880 224.800 121.200 M176.731 122.333 C 175.483 122.700,174.336 123.127,174.181 123.283 C 173.900 123.567,179.652 122.047,179.967 121.755 C 180.306 121.439,178.935 121.684,176.731 122.333 M230.387 122.613 C 232.029 123.134,233.442 123.492,233.525 123.408 C 233.712 123.221,228.496 121.587,227.858 121.633 C 227.606 121.650,228.744 122.091,230.387 122.613 M171.600 124.000 C 171.067 124.345,171.067 124.388,171.600 124.388 C 171.930 124.388,172.470 124.213,172.800 124.000 C 173.333 123.655,173.333 123.612,172.800 123.612 C 172.470 123.612,171.930 123.787,171.600 124.000 M234.800 123.964 C 235.130 124.150,235.850 124.423,236.400 124.568 L 237.400 124.833 236.400 124.231 C 235.850 123.899,235.130 123.627,234.800 123.626 C 234.267 123.625,234.267 123.662,234.800 123.964 M169.200 125.000 C 168.650 125.314,168.380 125.572,168.600 125.572 C 168.820 125.572,169.450 125.314,170.000 125.000 C 170.550 124.686,170.820 124.428,170.600 124.428 C 170.380 124.428,169.750 124.686,169.200 125.000 M240.104 126.034 C 241.217 126.682,243.600 127.630,243.600 127.424 C 243.600 127.220,240.052 125.593,239.649 125.612 C 239.512 125.619,239.717 125.809,240.104 126.034 M159.892 129.410 C 158.191 130.405,156.800 131.320,156.800 131.442 C 156.800 131.565,157.445 131.267,158.233 130.780 C 159.021 130.293,160.596 129.381,161.733 128.754 C 162.870 128.127,163.616 127.611,163.392 127.607 C 163.167 127.603,161.592 128.414,159.892 129.410 M244.055 127.788 C 244.440 128.173,248.800 130.401,248.800 130.212 C 248.800 129.950,244.700 127.609,244.233 127.604 C 244.032 127.602,243.951 127.685,244.055 127.788 M249.800 131.007 C 250.240 131.366,250.960 131.835,251.400 132.051 L 252.200 132.444 251.400 131.793 C 250.960 131.434,250.240 130.965,249.800 130.749 L 249.000 130.356 249.800 131.007 M252.400 132.540 C 252.400 132.642,253.345 133.397,254.500 134.217 C 255.887 135.203,256.302 135.386,255.724 134.755 C 254.864 133.818,252.400 132.176,252.400 132.540 M152.306 134.436 L 151.000 135.672 152.500 134.589 C 153.325 133.993,154.000 133.436,154.000 133.353 C 154.000 132.980,153.522 133.286,152.306 134.436 M148.195 137.700 C 145.719 139.899,144.047 141.656,142.199 144.000 C 141.592 144.770,142.154 144.257,143.447 142.860 C 144.741 141.463,146.970 139.264,148.400 137.974 C 149.830 136.683,150.901 135.621,150.780 135.613 C 150.659 135.606,149.496 136.545,148.195 137.700 M261.100 139.869 C 263.575 142.319,265.600 144.521,265.600 144.762 C 265.600 145.003,266.005 145.194,266.500 145.186 C 267.396 145.172,267.396 145.169,266.569 144.686 C 266.112 144.419,264.590 142.971,263.186 141.468 C 261.783 139.965,259.727 137.988,258.617 137.075 C 257.508 136.162,258.625 137.419,261.100 139.869 M268.800 145.800 C 270.626 146.503,271.345 146.493,269.800 145.786 C 269.140 145.483,268.330 145.242,268.000 145.248 C 267.670 145.255,268.030 145.503,268.800 145.800 M139.345 147.510 C 138.128 149.343,136.875 151.605,137.302 151.200 C 137.933 150.601,141.148 145.602,140.897 145.610 C 140.734 145.616,140.035 146.471,139.345 147.510 M274.104 147.634 C 275.217 148.282,277.600 149.230,277.600 149.024 C 277.600 148.820,274.052 147.193,273.649 147.212 C 273.512 147.219,273.717 147.409,274.104 147.634 M278.057 149.354 C 278.199 149.516,279.639 150.459,281.257 151.451 C 282.876 152.443,283.840 152.900,283.400 152.468 C 282.641 151.721,277.515 148.734,278.057 149.354 M135.443 154.559 C 135.073 155.445,134.422 156.163,133.764 156.414 C 133.173 156.638,132.781 156.914,132.893 157.026 C 133.005 157.138,133.545 157.026,134.093 156.776 C 135.034 156.347,136.658 153.724,136.241 153.307 C 136.134 153.201,135.775 153.764,135.443 154.559 M286.400 155.114 C 287.610 156.216,288.664 157.057,288.742 156.984 C 288.908 156.827,286.264 154.451,285.039 153.655 C 284.577 153.355,285.190 154.012,286.400 155.114 M290.443 158.582 C 291.017 159.252,292.434 161.060,293.591 162.600 C 296.007 165.816,296.471 166.322,295.374 164.547 C 293.977 162.285,293.025 161.067,291.200 159.203 C 290.210 158.192,289.870 157.912,290.443 158.582 M127.928 159.012 C 126.898 159.549,125.924 160.200,125.763 160.460 C 125.539 160.823,129.543 158.801,130.367 158.135 C 130.936 157.675,129.512 158.187,127.928 159.012 M121.977 162.893 C 118.768 165.149,112.844 170.628,111.492 172.592 C 111.034 173.256,112.063 172.310,113.779 170.489 C 115.495 168.667,118.722 165.810,120.950 164.139 C 125.479 160.741,125.405 160.800,125.144 160.800 C 125.040 160.800,123.615 161.742,121.977 162.893 M298.014 169.820 C 298.022 170.029,298.299 170.650,298.631 171.200 L 299.233 172.200 298.972 171.200 C 298.699 170.157,297.989 169.133,298.014 169.820 M108.148 177.103 C 105.955 180.413,104.649 182.783,104.887 183.021 C 104.968 183.101,105.637 182.049,106.374 180.683 C 107.111 179.318,108.415 177.255,109.270 176.100 C 110.126 174.945,110.685 174.001,110.513 174.003 C 110.341 174.005,109.277 175.400,108.148 177.103 M300.468 176.600 C 300.474 177.040,300.624 177.850,300.800 178.400 L 301.120 179.400 301.132 178.400 C 301.138 177.850,300.989 177.040,300.800 176.600 L 300.456 175.800 300.468 176.600 M301.355 185.000 C 301.356 187.860,301.420 188.978,301.497 187.483 C 301.574 185.989,301.574 183.649,301.496 182.283 C 301.418 180.918,301.355 182.140,301.355 185.000 M102.267 188.267 C 102.120 188.413,102.011 188.908,102.025 189.367 C 102.049 190.133,102.082 190.123,102.434 189.242 C 102.826 188.263,102.744 187.789,102.267 188.267 M101.246 191.639 C 101.001 192.343,100.818 193.208,100.840 193.560 C 100.861 193.912,101.129 193.403,101.435 192.429 C 102.075 190.388,101.915 189.720,101.246 191.639 M300.520 192.800 C 300.274 194.010,300.134 195.063,300.210 195.140 C 300.456 195.391,301.251 191.960,301.107 191.270 C 301.030 190.901,300.766 191.590,300.520 192.800 M100.256 195.284 C 100.121 195.788,100.027 196.560,100.046 197.000 C 100.065 197.440,100.245 197.098,100.446 196.240 C 100.836 194.578,100.670 193.740,100.256 195.284 M298.889 198.108 C 298.397 199.460,298.151 200.394,298.344 200.183 C 298.819 199.664,300.157 196.024,299.950 195.816 C 299.859 195.725,299.381 196.757,298.889 198.108 M99.457 199.500 C 99.142 201.406,99.212 213.414,99.547 214.977 C 99.686 215.625,99.800 212.070,99.800 207.077 C 99.800 202.085,99.779 198.000,99.752 198.000 C 99.726 198.000,99.593 198.675,99.457 199.500 M296.189 203.622 C 294.872 206.169,291.202 210.734,288.325 213.405 C 286.716 214.899,285.950 215.746,286.623 215.288 C 289.566 213.284,297.805 203.272,297.095 202.562 C 296.965 202.432,296.557 202.909,296.189 203.622 M100.068 217.600 C 100.062 218.150,100.211 218.960,100.400 219.400 L 100.744 220.200 100.732 219.400 C 100.726 218.960,100.576 218.150,100.400 217.600 L 100.080 216.600 100.068 217.600 M281.480 218.474 C 280.423 219.144,279.641 219.775,279.742 219.875 C 279.964 220.097,283.030 218.199,283.390 217.616 C 283.738 217.052,283.676 217.080,281.480 218.474 M277.000 221.030 C 275.900 221.570,274.010 222.462,272.800 223.012 C 271.590 223.562,271.050 223.900,271.600 223.762 C 272.934 223.429,279.200 220.513,279.200 220.226 C 279.200 219.935,279.322 219.890,277.000 221.030 M100.856 220.800 C 100.856 221.130,101.011 221.760,101.200 222.200 C 101.417 222.704,101.544 222.778,101.544 222.400 C 101.544 222.070,101.389 221.440,101.200 221.000 C 100.983 220.496,100.856 220.422,100.856 220.800 M267.800 224.615 C 266.223 225.161,266.220 225.165,267.600 224.932 C 269.232 224.657,270.900 224.048,270.000 224.056 C 269.670 224.059,268.680 224.311,267.800 224.615 M263.200 225.600 L 262.200 225.920 263.200 225.920 C 263.750 225.920,264.650 225.776,265.200 225.600 L 266.200 225.280 265.200 225.280 C 264.650 225.280,263.750 225.424,263.200 225.600 M256.080 226.880 C 255.816 227.144,255.606 227.549,255.613 227.780 C 255.620 228.011,255.855 227.898,256.136 227.529 C 256.417 227.160,257.356 226.785,258.223 226.696 L 259.800 226.534 258.180 226.467 C 257.289 226.430,256.344 226.616,256.080 226.880 M103.210 227.800 C 103.424 228.350,103.785 229.275,104.011 229.855 C 104.237 230.436,104.510 230.824,104.616 230.717 C 104.723 230.611,104.439 229.686,103.986 228.662 C 103.128 226.721,102.530 226.058,103.210 227.800 M254.462 230.062 C 254.000 230.994,253.695 231.829,253.784 231.917 C 253.872 232.005,254.329 231.323,254.800 230.400 C 255.271 229.477,255.576 228.642,255.478 228.545 C 255.380 228.447,254.923 229.129,254.462 230.062 M251.461 234.763 C 249.327 237.481,247.729 239.159,245.193 241.349 C 244.207 242.201,243.812 242.686,244.316 242.426 C 245.583 241.774,250.717 236.548,252.325 234.274 C 254.176 231.656,253.683 231.935,251.461 234.763 M107.378 235.875 C 107.717 236.576,108.194 237.272,108.437 237.423 C 108.974 237.755,108.395 236.615,107.410 235.400 C 106.808 234.657,106.806 234.691,107.378 235.875 M110.067 239.762 C 111.786 242.293,118.107 248.614,120.638 250.333 L 122.600 251.667 121.000 250.359 C 118.932 248.668,111.732 241.468,110.041 239.400 L 108.733 237.800 110.067 239.762 M239.800 244.692 C 238.700 245.272,236.720 246.154,235.400 246.652 C 234.080 247.151,233.239 247.568,233.532 247.579 C 234.674 247.624,242.000 244.321,242.000 243.760 C 242.000 243.531,242.003 243.530,239.800 244.692 M229.400 248.224 L 227.000 248.762 229.104 248.567 C 230.261 248.459,231.611 248.209,232.104 248.011 C 233.367 247.503,232.216 247.594,229.400 248.224 M218.500 248.676 C 218.885 248.776,219.515 248.776,219.900 248.676 C 220.285 248.575,219.970 248.493,219.200 248.493 C 218.430 248.493,218.115 248.575,218.500 248.676 M216.541 250.700 C 215.936 251.525,215.162 252.557,214.821 252.993 C 214.262 253.706,214.262 253.738,214.819 253.311 C 215.529 252.767,218.154 249.200,217.845 249.200 C 217.733 249.200,217.146 249.875,216.541 250.700 M123.001 252.002 C 123.269 252.436,125.600 253.734,125.600 253.450 C 125.600 253.356,124.959 252.901,124.176 252.439 C 123.393 251.977,122.864 251.780,123.001 252.002 M180.176 253.787 C 179.749 254.110,179.614 254.380,179.876 254.387 C 180.138 254.394,180.464 254.220,180.600 254.000 C 180.736 253.780,181.027 253.600,181.247 253.600 C 181.467 253.600,181.554 253.750,181.441 253.934 C 181.327 254.118,181.391 254.793,181.583 255.434 C 181.913 256.538,181.933 256.509,181.966 254.900 C 182.003 253.054,181.532 252.762,180.176 253.787 M126.000 253.759 C 126.000 254.096,128.844 255.689,129.060 255.474 C 129.180 255.354,128.540 254.880,127.639 254.420 C 126.737 253.960,126.000 253.663,126.000 253.759 M210.643 258.600 C 208.742 261.130,207.269 263.200,207.369 263.200 C 207.538 263.200,213.500 255.533,214.154 254.475 C 214.315 254.214,214.369 254.000,214.273 254.000 C 214.176 254.000,212.543 256.070,210.643 258.600 M129.600 255.791 C 129.600 256.040,133.219 257.603,133.751 257.584 C 133.998 257.576,133.570 257.290,132.800 256.949 C 130.542 255.949,129.600 255.608,129.600 255.791 M170.400 258.217 L 169.400 258.807 170.600 258.552 C 171.924 258.270,172.924 257.591,171.980 257.614 C 171.661 257.622,170.950 257.893,170.400 258.217 M182.274 260.600 C 182.398 262.140,182.566 263.475,182.649 263.567 C 182.927 263.874,182.758 261.017,182.402 259.400 C 182.131 258.170,182.102 258.448,182.274 260.600 M167.200 259.200 C 166.405 259.714,167.404 259.714,168.600 259.200 L 169.400 258.856 168.600 258.834 C 168.160 258.822,167.530 258.987,167.200 259.200 M141.400 260.000 C 141.840 260.189,142.560 260.338,143.000 260.332 C 143.643 260.323,143.604 260.257,142.800 260.000 C 141.432 259.562,140.381 259.562,141.400 260.000 M163.800 260.000 L 162.600 260.305 163.800 260.325 C 164.460 260.335,165.360 260.189,165.800 260.000 L 166.600 259.656 165.800 259.675 C 165.360 259.686,164.460 259.832,163.800 260.000 M145.400 260.810 C 146.619 261.110,152.272 261.321,151.967 261.055 C 151.875 260.975,150.090 260.821,148.000 260.712 C 145.910 260.604,144.740 260.648,145.400 260.810 M157.000 260.800 L 153.800 261.053 157.000 261.087 C 158.760 261.105,160.650 260.976,161.200 260.800 L 162.200 260.480 161.200 260.513 C 160.650 260.532,158.760 260.661,157.000 260.800 M203.916 267.422 C 202.439 269.500,201.359 271.193,201.516 271.185 C 201.672 271.176,202.459 270.231,203.265 269.085 C 204.071 267.938,205.301 266.235,206.000 265.300 C 206.698 264.365,207.119 263.610,206.935 263.622 C 206.751 263.634,205.392 265.344,203.916 267.422 M182.880 266.200 C 182.868 267.080,183.003 268.610,183.180 269.600 L 183.500 271.400 183.520 269.800 C 183.532 268.920,183.397 267.390,183.220 266.400 L 182.900 264.600 182.880 266.200 M199.000 274.000 C 197.984 275.320,197.299 276.394,197.477 276.387 C 197.654 276.381,198.149 275.886,198.575 275.287 C 199.001 274.689,199.788 273.615,200.323 272.900 C 200.857 272.185,201.194 271.600,201.071 271.600 C 200.948 271.600,200.016 272.680,199.000 274.000 M184.041 276.320 C 183.969 277.932,186.722 281.812,187.433 281.101 C 187.562 280.971,187.319 280.678,186.891 280.449 C 185.897 279.917,184.743 278.158,184.372 276.608 C 184.137 275.629,184.074 275.574,184.041 276.320 M195.200 279.200 C 194.730 279.860,194.436 280.400,194.546 280.400 C 194.656 280.400,195.130 279.860,195.600 279.200 C 196.070 278.540,196.364 278.000,196.254 278.000 C 196.144 278.000,195.670 278.540,195.200 279.200 " stroke="none" fill="#81a5d8" fill-rule="evenodd"></path><path id="path3" d="M195.500 119.482 C 195.995 119.578,196.805 119.578,197.300 119.482 C 197.795 119.387,197.390 119.309,196.400 119.309 C 195.410 119.309,195.005 119.387,195.500 119.482 M210.300 119.482 C 210.795 119.578,211.605 119.578,212.100 119.482 C 212.595 119.387,212.190 119.309,211.200 119.309 C 210.210 119.309,209.805 119.387,210.300 119.482 M189.600 120.000 C 187.601 120.421,189.652 120.438,192.000 120.020 C 193.624 119.732,193.663 119.700,192.400 119.703 C 191.630 119.704,190.370 119.838,189.600 120.000 M213.633 119.751 C 213.725 119.834,215.060 120.002,216.600 120.126 C 218.752 120.298,219.030 120.269,217.800 119.998 C 216.183 119.642,213.326 119.473,213.633 119.751 M185.200 120.800 C 184.408 121.054,184.367 121.120,185.000 121.120 C 185.440 121.120,186.250 120.976,186.800 120.800 C 187.592 120.546,187.633 120.480,187.000 120.480 C 186.560 120.480,185.750 120.624,185.200 120.800 M220.800 120.800 C 221.350 120.976,222.250 121.117,222.800 121.113 C 223.698 121.106,223.678 121.074,222.600 120.800 C 220.908 120.369,219.456 120.369,220.800 120.800 M225.800 121.828 C 226.900 122.134,227.980 122.369,228.200 122.350 C 228.877 122.292,225.452 121.261,224.600 121.267 C 224.160 121.269,224.700 121.522,225.800 121.828 M179.000 122.189 C 176.852 122.897,177.697 122.924,180.200 122.228 C 181.300 121.922,181.840 121.669,181.400 121.667 C 180.960 121.664,179.880 121.899,179.000 122.189 M172.675 124.073 C 171.396 124.519,170.436 124.970,170.542 125.075 C 170.739 125.272,175.600 123.610,175.600 123.346 C 175.600 123.103,175.106 123.226,172.675 124.073 M235.600 124.800 C 235.930 125.013,236.470 125.188,236.800 125.188 C 237.333 125.188,237.333 125.145,236.800 124.800 C 236.470 124.587,235.930 124.412,235.600 124.412 C 235.067 124.412,235.067 124.455,235.600 124.800 M168.400 125.800 C 167.850 126.114,167.580 126.372,167.800 126.372 C 168.020 126.372,168.650 126.114,169.200 125.800 C 169.750 125.486,170.020 125.228,169.800 125.228 C 169.580 125.228,168.950 125.486,168.400 125.800 M240.471 126.604 C 240.832 126.965,248.000 130.380,248.000 130.191 C 248.000 130.090,246.384 129.196,244.408 128.204 C 241.114 126.550,239.939 126.072,240.471 126.604 M155.951 132.327 C 149.266 136.692,142.798 143.036,139.035 148.918 C 137.443 151.407,134.689 156.916,135.192 156.605 C 135.375 156.492,136.062 155.252,136.718 153.850 C 140.412 145.956,147.351 138.343,155.996 132.698 C 159.129 130.652,159.472 130.400,159.118 130.400 C 159.000 130.400,157.575 131.267,155.951 132.327 M248.600 130.686 C 249.281 131.373,255.218 135.153,254.960 134.735 C 254.826 134.518,253.520 133.579,252.058 132.647 C 248.745 130.535,248.071 130.153,248.600 130.686 M256.800 136.413 C 257.570 137.128,258.920 138.377,259.800 139.188 C 260.680 139.999,262.345 141.698,263.500 142.963 C 264.655 144.229,265.600 145.097,265.600 144.892 C 265.600 144.366,259.270 138.026,257.158 136.436 L 255.400 135.113 256.800 136.413 M266.600 145.600 C 267.040 145.789,267.670 145.944,268.000 145.944 C 268.378 145.944,268.304 145.817,267.800 145.600 C 267.360 145.411,266.730 145.256,266.400 145.256 C 266.022 145.256,266.096 145.383,266.600 145.600 M274.433 148.153 C 274.841 148.526,279.600 150.791,279.600 150.612 C 279.600 150.387,274.979 148.000,274.545 148.000 C 274.392 148.000,274.342 148.069,274.433 148.153 M287.200 156.301 C 288.630 157.655,289.927 158.771,290.083 158.781 C 290.238 158.792,289.518 158.033,288.483 157.097 C 285.317 154.233,284.441 153.689,287.200 156.301 M131.800 157.774 C 129.172 159.039,129.684 159.078,132.449 157.823 C 133.632 157.286,134.420 156.838,134.200 156.828 C 133.980 156.818,132.900 157.244,131.800 157.774 M127.900 159.627 C 127.075 160.063,126.400 160.508,126.400 160.618 C 126.400 160.727,127.120 160.449,128.000 160.000 C 128.880 159.551,129.600 159.097,129.600 158.992 C 129.600 158.730,129.597 158.731,127.900 159.627 M292.038 161.230 C 293.007 162.456,294.214 163.986,294.721 164.630 C 295.228 165.273,294.901 164.695,293.995 163.345 C 293.088 161.994,291.881 160.464,291.311 159.945 C 290.741 159.425,291.068 160.003,292.038 161.230 M124.500 161.646 C 123.137 162.519,122.695 163.106,123.900 162.443 C 124.818 161.939,126.256 160.827,126.000 160.819 C 125.890 160.816,125.215 161.188,124.500 161.646 M118.100 166.415 C 116.505 167.737,115.200 168.987,115.200 169.192 C 115.200 169.397,116.055 168.778,117.100 167.815 C 118.145 166.852,119.540 165.606,120.200 165.045 C 120.860 164.484,121.310 164.022,121.200 164.019 C 121.090 164.015,119.695 165.094,118.100 166.415 M295.600 166.119 C 295.600 166.410,298.383 171.366,298.391 171.089 C 298.404 170.651,296.031 166.000,295.794 166.000 C 295.687 166.000,295.600 166.053,295.600 166.119 M112.806 171.794 C 112.063 172.561,111.532 173.250,111.627 173.325 C 111.722 173.400,112.406 172.773,113.146 171.931 C 114.829 170.018,114.612 169.931,112.806 171.794 M298.629 172.400 C 298.776 172.950,299.064 173.670,299.267 174.000 C 299.525 174.417,299.557 174.295,299.371 173.600 C 299.224 173.050,298.936 172.330,298.733 172.000 C 298.475 171.583,298.443 171.705,298.629 172.400 M109.498 175.900 C 108.007 177.966,107.226 179.264,107.872 178.600 C 108.583 177.869,111.272 174.000,111.068 174.000 C 110.958 174.000,110.251 174.855,109.498 175.900 M299.656 175.200 C 299.656 175.530,299.811 176.160,300.000 176.600 C 300.217 177.104,300.344 177.178,300.344 176.800 C 300.344 176.470,300.189 175.840,300.000 175.400 C 299.783 174.896,299.656 174.822,299.656 175.200 M300.600 184.946 C 300.600 188.852,300.717 191.632,300.860 191.124 C 301.192 189.944,301.186 180.578,300.853 179.023 C 300.714 178.375,300.600 181.041,300.600 184.946 M299.673 194.473 C 299.435 195.409,299.310 196.243,299.394 196.327 C 299.478 196.412,299.751 195.724,300.000 194.800 C 300.249 193.876,300.374 193.041,300.279 192.945 C 300.183 192.850,299.910 193.537,299.673 194.473 M99.815 200.615 C 99.661 201.854,99.624 202.957,99.734 203.067 C 99.844 203.177,100.061 202.254,100.215 201.015 C 100.370 199.777,100.407 198.673,100.297 198.563 C 100.187 198.453,99.970 199.377,99.815 200.615 M295.753 203.700 C 294.376 206.036,294.286 206.235,294.987 205.400 C 295.800 204.432,296.500 203.200,296.238 203.200 C 296.133 203.200,295.915 203.425,295.753 203.700 M291.375 209.700 L 290.200 211.000 291.500 209.825 C 292.215 209.179,292.800 208.594,292.800 208.525 C 292.800 208.216,292.470 208.488,291.375 209.700 M99.693 212.000 C 99.695 213.765,100.291 216.388,100.330 214.800 C 100.343 214.250,100.205 213.080,100.023 212.200 L 99.692 210.600 99.693 212.000 M287.965 213.243 L 285.800 215.286 287.899 213.607 C 289.831 212.061,290.686 211.200,290.288 211.200 C 290.201 211.200,289.155 212.119,287.965 213.243 M282.600 217.435 L 281.400 218.466 282.700 217.606 C 283.415 217.133,284.000 216.668,284.000 216.573 C 284.000 216.273,283.831 216.378,282.600 217.435 M273.400 222.238 C 272.300 222.772,271.850 223.094,272.400 222.954 C 273.542 222.662,276.407 221.227,275.800 221.251 C 275.580 221.260,274.500 221.704,273.400 222.238 M101.656 222.000 C 101.656 222.330,101.811 222.960,102.000 223.400 C 102.217 223.904,102.344 223.978,102.344 223.600 C 102.344 223.270,102.189 222.640,102.000 222.200 C 101.783 221.696,101.656 221.622,101.656 222.000 M269.000 223.815 C 267.416 224.363,267.414 224.366,268.800 224.138 C 269.570 224.012,270.470 223.754,270.800 223.566 C 271.681 223.064,270.830 223.182,269.000 223.815 M102.629 225.200 C 102.776 225.750,103.064 226.470,103.267 226.800 C 103.525 227.217,103.557 227.095,103.371 226.400 C 103.224 225.850,102.936 225.130,102.733 224.800 C 102.475 224.383,102.443 224.505,102.629 225.200 M265.200 224.800 C 264.405 225.314,265.404 225.314,266.600 224.800 L 267.400 224.456 266.600 224.434 C 266.160 224.422,265.530 224.587,265.200 224.800 M260.600 225.600 L 259.000 225.886 260.400 225.903 C 261.170 225.913,262.250 225.776,262.800 225.600 C 264.085 225.188,262.899 225.188,260.600 225.600 M256.160 226.306 C 255.676 226.629,254.799 228.158,254.801 228.674 C 254.802 228.853,255.152 228.428,255.578 227.729 C 256.080 226.906,256.750 226.398,257.477 226.289 C 258.522 226.132,258.531 226.116,257.600 226.066 C 257.050 226.036,256.402 226.144,256.160 226.306 M104.428 229.400 C 104.428 229.620,104.686 230.250,105.000 230.800 C 105.314 231.350,105.572 231.620,105.572 231.400 C 105.572 231.180,105.314 230.550,105.000 230.000 C 104.686 229.450,104.428 229.180,104.428 229.400 M106.766 234.070 C 107.416 235.208,108.320 236.603,108.775 237.170 C 109.230 237.736,108.778 236.805,107.771 235.100 C 106.764 233.395,105.860 232.000,105.762 232.000 C 105.664 232.000,106.116 232.931,106.766 234.070 M248.506 237.513 C 244.721 241.521,244.163 242.389,247.431 239.186 C 249.461 237.198,252.261 233.981,251.934 234.013 C 251.860 234.021,250.318 235.596,248.506 237.513 M111.922 241.500 C 114.086 244.075,119.082 248.833,120.800 249.955 C 122.083 250.793,122.067 250.758,120.600 249.546 C 117.818 247.245,112.860 242.337,111.912 240.945 C 111.410 240.208,110.848 239.604,110.663 239.603 C 110.477 239.601,111.044 240.455,111.922 241.500 M242.857 242.408 C 240.485 243.966,240.235 244.326,242.323 243.176 C 243.270 242.654,244.237 241.996,244.472 241.714 C 245.059 241.006,244.860 241.091,242.857 242.408 M238.701 244.765 C 236.624 245.735,236.246 246.231,238.200 245.421 C 239.080 245.057,239.971 244.588,240.180 244.379 C 240.680 243.880,240.487 243.931,238.701 244.765 M230.600 247.600 C 229.581 248.038,230.632 248.038,232.000 247.600 C 232.804 247.343,232.843 247.277,232.200 247.268 C 231.760 247.262,231.040 247.411,230.600 247.600 M217.165 249.300 C 216.512 250.255,216.478 250.388,217.038 249.800 C 217.457 249.360,218.059 248.775,218.376 248.500 C 218.716 248.206,218.768 248.000,218.504 248.000 C 218.257 248.000,217.654 248.585,217.165 249.300 M221.354 248.473 C 222.648 248.645,224.898 248.640,226.354 248.463 C 228.693 248.178,228.420 248.142,224.000 248.152 C 219.836 248.160,219.394 248.214,221.354 248.473 M214.940 252.105 C 214.466 252.817,213.506 254.165,212.805 255.100 C 212.104 256.035,211.615 256.800,211.717 256.800 C 211.819 256.800,212.919 255.450,214.161 253.800 C 215.403 252.150,216.280 250.802,216.110 250.805 C 215.939 250.808,215.413 251.393,214.940 252.105 M124.200 252.306 C 124.744 252.858,129.200 255.327,129.200 255.076 C 129.200 254.966,128.165 254.274,126.900 253.538 C 124.266 252.006,123.609 251.707,124.200 252.306 M179.500 253.622 C 178.675 254.060,178.000 254.508,178.000 254.618 C 178.000 254.727,178.713 254.453,179.584 254.008 C 181.745 252.906,181.930 252.964,182.116 254.803 L 182.278 256.406 182.239 254.706 C 182.193 252.683,181.662 252.473,179.500 253.622 M130.800 256.000 C 131.570 256.422,132.380 256.766,132.600 256.766 C 132.820 256.766,132.370 256.422,131.600 256.000 C 130.830 255.578,130.020 255.234,129.800 255.234 C 129.580 255.234,130.030 255.578,130.800 256.000 M133.600 257.133 C 133.930 257.336,134.650 257.624,135.200 257.771 C 135.895 257.957,136.017 257.925,135.600 257.667 C 135.270 257.464,134.550 257.176,134.000 257.029 C 133.305 256.843,133.183 256.875,133.600 257.133 M171.400 257.414 C 170.400 257.896,170.366 257.951,171.200 257.748 C 172.333 257.471,173.607 256.821,173.000 256.830 C 172.780 256.833,172.060 257.096,171.400 257.414 M137.000 258.400 C 137.440 258.589,138.070 258.744,138.400 258.744 C 138.778 258.744,138.704 258.617,138.200 258.400 C 137.760 258.211,137.130 258.056,136.800 258.056 C 136.422 258.056,136.496 258.183,137.000 258.400 M168.400 258.400 C 167.867 258.745,167.867 258.788,168.400 258.788 C 168.730 258.788,169.270 258.613,169.600 258.400 C 170.133 258.055,170.133 258.012,169.600 258.012 C 169.270 258.012,168.730 258.187,168.400 258.400 M139.800 259.200 C 140.240 259.389,140.960 259.538,141.400 259.532 C 142.043 259.523,142.004 259.457,141.200 259.200 C 139.832 258.762,138.781 258.762,139.800 259.200 M165.200 259.200 C 164.408 259.454,164.367 259.520,165.000 259.520 C 165.440 259.520,166.250 259.376,166.800 259.200 C 167.592 258.946,167.633 258.880,167.000 258.880 C 166.560 258.880,165.750 259.024,165.200 259.200 M208.104 261.222 C 205.906 264.304,206.222 264.290,208.600 261.200 C 209.616 259.880,210.301 258.810,210.123 258.822 C 209.946 258.833,209.037 259.913,208.104 261.222 M146.000 260.399 C 147.850 260.750,151.064 260.919,150.767 260.649 C 150.675 260.565,149.160 260.398,147.400 260.277 C 144.994 260.112,144.647 260.142,146.000 260.399 M157.600 260.400 L 155.400 260.670 157.200 260.712 C 158.190 260.735,159.720 260.605,160.600 260.423 C 162.620 260.005,160.928 259.992,157.600 260.400 M182.893 261.600 C 182.885 262.370,183.016 263.990,183.183 265.200 C 183.448 267.116,183.490 267.193,183.509 265.800 C 183.520 264.920,183.390 263.300,183.218 262.200 C 182.969 260.597,182.904 260.478,182.893 261.600 M201.918 269.483 C 196.653 276.494,196.720 276.400,196.944 276.400 C 197.049 276.400,199.068 273.835,201.432 270.700 C 203.797 267.565,205.904 264.775,206.114 264.500 C 206.325 264.225,206.394 264.000,206.267 264.000 C 206.139 264.000,204.182 266.467,201.918 269.483 M183.681 269.400 C 183.675 270.060,183.810 271.500,183.982 272.600 C 184.287 274.559,184.294 274.567,184.324 273.000 C 184.340 272.120,184.205 270.680,184.023 269.800 C 183.740 268.430,183.690 268.373,183.681 269.400 M184.436 276.140 C 184.394 277.009,185.611 279.722,185.909 279.424 C 186.022 279.311,185.925 278.990,185.693 278.710 C 185.462 278.429,185.092 277.570,184.872 276.800 C 184.652 276.030,184.456 275.733,184.436 276.140 M194.094 279.612 C 192.549 281.017,188.969 281.305,187.189 280.168 L 186.200 279.536 187.144 280.368 C 188.810 281.836,192.431 281.554,194.306 279.811 C 195.128 279.047,195.710 278.422,195.600 278.423 C 195.490 278.423,194.812 278.958,194.094 279.612 " stroke="none" fill="#a6c4f0" fill-rule="evenodd"></path><path id="path4" d="M200.900 119.097 C 202.605 119.172,205.395 119.172,207.100 119.097 C 208.805 119.022,207.410 118.961,204.000 118.961 C 200.590 118.961,199.195 119.022,200.900 119.097 M189.500 281.482 C 189.995 281.578,190.805 281.578,191.300 281.482 C 191.795 281.387,191.390 281.309,190.400 281.309 C 189.410 281.309,189.005 281.387,189.500 281.482 " stroke="none" fill="#96bcf0" fill-rule="evenodd"></path></g></svg>